<mxfile host="app.diagrams.net" modified="2024-03-03T10:08:23.068Z" agent="Mozilla/5.0 (Windows NT 10.0; Win64; x64) AppleWebKit/537.36 (KHTML, like Gecko) Chrome/122.0.0.0 Safari/537.36" etag="EBzxQdypGD0nhTe6Q738" version="24.0.0" type="device">
  <diagram id="R2lEEEUBdFMjLlhIrx00" name="Page-1">
    <mxGraphModel dx="3475" dy="1393" grid="0" gridSize="10" guides="1" tooltips="1" connect="1" arrows="1" fold="1" page="1" pageScale="1" pageWidth="850" pageHeight="1100" background="#000000" math="0" shadow="0" extFonts="Permanent Marker^https://fonts.googleapis.com/css?family=Permanent+Marker">
      <root>
        <mxCell id="0" />
        <mxCell id="1" parent="0" />
        <mxCell id="18622C9d9cLEmsquEzVz-1" value="Volunteers&lt;div style=&quot;font-size: 16px;&quot;&gt;&lt;br style=&quot;font-size: 16px;&quot;&gt;&lt;/div&gt;" style="rounded=0;whiteSpace=wrap;html=1;labelBackgroundColor=none;fillColor=#647687;strokeColor=#314354;fontSize=16;fontColor=#ffffff;" parent="1" vertex="1">
          <mxGeometry x="-538" y="199" width="117" height="60" as="geometry" />
        </mxCell>
        <mxCell id="18622C9d9cLEmsquEzVz-4" value="Volunteer_Id" style="ellipse;whiteSpace=wrap;html=1;fontStyle=4;rounded=0;labelBackgroundColor=none;fillColor=#647687;strokeColor=#314354;fontSize=16;fontColor=#ffffff;" parent="1" vertex="1">
          <mxGeometry x="-738" y="39" width="110" height="50" as="geometry" />
        </mxCell>
        <mxCell id="18622C9d9cLEmsquEzVz-5" value="username" style="ellipse;whiteSpace=wrap;html=1;strokeColor=#314354;fillColor=#647687;fontSize=16;labelBackgroundColor=none;fontColor=#ffffff;" parent="1" vertex="1">
          <mxGeometry x="-358" y="19" width="110" height="65" as="geometry" />
        </mxCell>
        <mxCell id="18622C9d9cLEmsquEzVz-6" value="gender" style="ellipse;whiteSpace=wrap;html=1;strokeColor=#314354;fillColor=#647687;fontSize=16;labelBackgroundColor=none;fontColor=#ffffff;" parent="1" vertex="1">
          <mxGeometry x="-778" y="424" width="110" height="70" as="geometry" />
        </mxCell>
        <mxCell id="18622C9d9cLEmsquEzVz-7" value="DOB" style="ellipse;whiteSpace=wrap;html=1;strokeColor=#314354;fillColor=#647687;fontSize=16;labelBackgroundColor=none;fontColor=#ffffff;" parent="1" vertex="1">
          <mxGeometry x="-798" y="179" width="110" height="70" as="geometry" />
        </mxCell>
        <mxCell id="18622C9d9cLEmsquEzVz-8" value="password" style="ellipse;whiteSpace=wrap;html=1;strokeColor=#314354;fillColor=#647687;fontSize=16;labelBackgroundColor=none;fontColor=#ffffff;" parent="1" vertex="1">
          <mxGeometry x="-421" y="410" width="117" height="70" as="geometry" />
        </mxCell>
        <mxCell id="18622C9d9cLEmsquEzVz-9" value="email" style="ellipse;whiteSpace=wrap;html=1;strokeColor=#314354;fillColor=#647687;fontSize=16;labelBackgroundColor=none;fontColor=#ffffff;" parent="1" vertex="1">
          <mxGeometry x="-818" y="269" width="110" height="70" as="geometry" />
        </mxCell>
        <mxCell id="18622C9d9cLEmsquEzVz-10" value="address" style="ellipse;whiteSpace=wrap;html=1;strokeColor=#314354;fillColor=#647687;fontSize=16;labelBackgroundColor=none;fontColor=#ffffff;" parent="1" vertex="1">
          <mxGeometry x="-542" y="439" width="117" height="65" as="geometry" />
        </mxCell>
        <mxCell id="18622C9d9cLEmsquEzVz-11" value="lastname" style="ellipse;whiteSpace=wrap;html=1;strokeColor=#314354;fillColor=#647687;fontSize=16;labelBackgroundColor=none;fontColor=#ffffff;" parent="1" vertex="1">
          <mxGeometry x="-488" y="19" width="110" height="60" as="geometry" />
        </mxCell>
        <mxCell id="18622C9d9cLEmsquEzVz-12" value="contact" style="ellipse;whiteSpace=wrap;html=1;strokeColor=#314354;fillColor=#647687;fontSize=16;labelBackgroundColor=none;fontColor=#ffffff;" parent="1" vertex="1">
          <mxGeometry x="-348" y="338" width="117" height="65" as="geometry" />
        </mxCell>
        <mxCell id="18622C9d9cLEmsquEzVz-13" value="location" style="ellipse;whiteSpace=wrap;html=1;strokeColor=#314354;fillColor=#647687;fontSize=16;labelBackgroundColor=none;fontColor=#ffffff;" parent="1" vertex="1">
          <mxGeometry x="-668" y="460" width="117" height="60" as="geometry" />
        </mxCell>
        <mxCell id="18622C9d9cLEmsquEzVz-14" value="firstname" style="ellipse;whiteSpace=wrap;html=1;strokeColor=#314354;fillColor=#647687;fontSize=16;labelBackgroundColor=none;fontColor=#ffffff;" parent="1" vertex="1">
          <mxGeometry x="-608" y="19" width="100" height="60" as="geometry" />
        </mxCell>
        <mxCell id="18622C9d9cLEmsquEzVz-15" value="bloodgroup" style="ellipse;whiteSpace=wrap;html=1;strokeColor=#314354;fillColor=#647687;fontSize=16;labelBackgroundColor=none;fontColor=#ffffff;" parent="1" vertex="1">
          <mxGeometry x="-830" y="353" width="110" height="65" as="geometry" />
        </mxCell>
        <mxCell id="18622C9d9cLEmsquEzVz-16" value="Skills" style="ellipse;whiteSpace=wrap;html=1;strokeColor=#314354;fillColor=#647687;fontSize=16;labelBackgroundColor=none;fontColor=#ffffff;" parent="1" vertex="1">
          <mxGeometry x="-778" y="99" width="110" height="60" as="geometry" />
        </mxCell>
        <mxCell id="18622C9d9cLEmsquEzVz-18" value="" style="endArrow=none;html=1;rounded=0;strokeColor=#FFFFFF;exitX=1;exitY=1;exitDx=0;exitDy=0;entryX=0.5;entryY=0;entryDx=0;entryDy=0;labelBackgroundColor=none;fontColor=default;fillColor=#647687;" parent="1" source="18622C9d9cLEmsquEzVz-4" target="18622C9d9cLEmsquEzVz-1" edge="1">
          <mxGeometry width="50" height="50" relative="1" as="geometry">
            <mxPoint x="-588" y="119" as="sourcePoint" />
            <mxPoint x="-638" y="169" as="targetPoint" />
          </mxGeometry>
        </mxCell>
        <mxCell id="18622C9d9cLEmsquEzVz-19" value="" style="endArrow=none;html=1;rounded=0;strokeColor=#FFFFFF;entryX=0.5;entryY=1;entryDx=0;entryDy=0;exitX=0.5;exitY=0;exitDx=0;exitDy=0;labelBackgroundColor=none;fontColor=default;fillColor=#647687;" parent="1" source="18622C9d9cLEmsquEzVz-1" target="18622C9d9cLEmsquEzVz-14" edge="1">
          <mxGeometry width="50" height="50" relative="1" as="geometry">
            <mxPoint x="-288" y="369" as="sourcePoint" />
            <mxPoint x="-238" y="319" as="targetPoint" />
          </mxGeometry>
        </mxCell>
        <mxCell id="18622C9d9cLEmsquEzVz-20" value="" style="endArrow=none;html=1;rounded=0;strokeColor=#FFFFFF;entryX=0;entryY=1;entryDx=0;entryDy=0;exitX=0.5;exitY=0;exitDx=0;exitDy=0;labelBackgroundColor=none;fontColor=default;fillColor=#647687;" parent="1" source="18622C9d9cLEmsquEzVz-1" target="18622C9d9cLEmsquEzVz-11" edge="1">
          <mxGeometry width="50" height="50" relative="1" as="geometry">
            <mxPoint x="-288" y="369" as="sourcePoint" />
            <mxPoint x="-238" y="319" as="targetPoint" />
          </mxGeometry>
        </mxCell>
        <mxCell id="18622C9d9cLEmsquEzVz-21" value="" style="endArrow=none;html=1;rounded=0;strokeColor=#FFFFFF;entryX=1;entryY=0.5;entryDx=0;entryDy=0;exitX=0;exitY=0.5;exitDx=0;exitDy=0;labelBackgroundColor=none;fontColor=default;fillColor=#647687;" parent="1" source="18622C9d9cLEmsquEzVz-1" target="18622C9d9cLEmsquEzVz-9" edge="1">
          <mxGeometry width="50" height="50" relative="1" as="geometry">
            <mxPoint x="-288" y="369" as="sourcePoint" />
            <mxPoint x="-238" y="319" as="targetPoint" />
          </mxGeometry>
        </mxCell>
        <mxCell id="18622C9d9cLEmsquEzVz-22" value="" style="endArrow=none;html=1;rounded=0;strokeColor=#FFFFFF;exitX=0.5;exitY=1;exitDx=0;exitDy=0;labelBackgroundColor=none;fontColor=default;fillColor=#647687;" parent="1" source="18622C9d9cLEmsquEzVz-1" target="18622C9d9cLEmsquEzVz-15" edge="1">
          <mxGeometry width="50" height="50" relative="1" as="geometry">
            <mxPoint x="-288" y="369" as="sourcePoint" />
            <mxPoint x="-238" y="319" as="targetPoint" />
          </mxGeometry>
        </mxCell>
        <mxCell id="18622C9d9cLEmsquEzVz-23" value="" style="endArrow=none;html=1;rounded=0;strokeColor=#FFFFFF;exitX=0.583;exitY=0.012;exitDx=0;exitDy=0;exitPerimeter=0;entryX=0.5;entryY=1;entryDx=0;entryDy=0;labelBackgroundColor=none;fontColor=default;fillColor=#647687;" parent="1" source="18622C9d9cLEmsquEzVz-6" target="18622C9d9cLEmsquEzVz-1" edge="1">
          <mxGeometry width="50" height="50" relative="1" as="geometry">
            <mxPoint x="-288" y="369" as="sourcePoint" />
            <mxPoint x="-238" y="319" as="targetPoint" />
          </mxGeometry>
        </mxCell>
        <mxCell id="18622C9d9cLEmsquEzVz-24" value="" style="endArrow=none;html=1;rounded=0;strokeColor=#FFFFFF;exitX=0.5;exitY=0;exitDx=0;exitDy=0;entryX=0.5;entryY=1;entryDx=0;entryDy=0;labelBackgroundColor=none;fontColor=default;fillColor=#647687;" parent="1" source="18622C9d9cLEmsquEzVz-13" target="18622C9d9cLEmsquEzVz-1" edge="1">
          <mxGeometry width="50" height="50" relative="1" as="geometry">
            <mxPoint x="-288" y="369" as="sourcePoint" />
            <mxPoint x="-238" y="319" as="targetPoint" />
          </mxGeometry>
        </mxCell>
        <mxCell id="18622C9d9cLEmsquEzVz-25" value="" style="endArrow=none;html=1;rounded=0;strokeColor=#FFFFFF;exitX=0.5;exitY=0;exitDx=0;exitDy=0;entryX=0.5;entryY=1;entryDx=0;entryDy=0;labelBackgroundColor=none;fontColor=default;fillColor=#647687;" parent="1" source="18622C9d9cLEmsquEzVz-10" target="18622C9d9cLEmsquEzVz-1" edge="1">
          <mxGeometry width="50" height="50" relative="1" as="geometry">
            <mxPoint x="-288" y="369" as="sourcePoint" />
            <mxPoint x="-418" y="219" as="targetPoint" />
          </mxGeometry>
        </mxCell>
        <mxCell id="18622C9d9cLEmsquEzVz-26" value="" style="endArrow=none;html=1;rounded=0;strokeColor=#FFFFFF;entryX=0.5;entryY=0;entryDx=0;entryDy=0;exitX=0.5;exitY=1;exitDx=0;exitDy=0;labelBackgroundColor=none;fontColor=default;fillColor=#647687;" parent="1" source="18622C9d9cLEmsquEzVz-1" target="18622C9d9cLEmsquEzVz-8" edge="1">
          <mxGeometry width="50" height="50" relative="1" as="geometry">
            <mxPoint x="-288" y="369" as="sourcePoint" />
            <mxPoint x="-238" y="319" as="targetPoint" />
          </mxGeometry>
        </mxCell>
        <mxCell id="18622C9d9cLEmsquEzVz-27" value="" style="endArrow=none;html=1;rounded=0;strokeColor=#FFFFFF;entryX=0;entryY=0.5;entryDx=0;entryDy=0;exitX=0.5;exitY=1;exitDx=0;exitDy=0;labelBackgroundColor=none;fontColor=default;fillColor=#647687;" parent="1" source="18622C9d9cLEmsquEzVz-1" target="18622C9d9cLEmsquEzVz-12" edge="1">
          <mxGeometry width="50" height="50" relative="1" as="geometry">
            <mxPoint x="-416" y="229" as="sourcePoint" />
            <mxPoint x="-238" y="319" as="targetPoint" />
          </mxGeometry>
        </mxCell>
        <mxCell id="18622C9d9cLEmsquEzVz-28" value="" style="endArrow=none;html=1;rounded=0;strokeColor=#FFFFFF;entryX=0;entryY=1;entryDx=0;entryDy=0;exitX=0.5;exitY=0;exitDx=0;exitDy=0;labelBackgroundColor=none;fontColor=default;fillColor=#647687;" parent="1" source="18622C9d9cLEmsquEzVz-1" target="18622C9d9cLEmsquEzVz-5" edge="1">
          <mxGeometry width="50" height="50" relative="1" as="geometry">
            <mxPoint x="-288" y="369" as="sourcePoint" />
            <mxPoint x="-238" y="319" as="targetPoint" />
          </mxGeometry>
        </mxCell>
        <mxCell id="18622C9d9cLEmsquEzVz-29" value="" style="endArrow=none;html=1;rounded=0;strokeColor=#FFFFFF;exitX=1;exitY=0.5;exitDx=0;exitDy=0;entryX=0;entryY=0.5;entryDx=0;entryDy=0;labelBackgroundColor=none;fontColor=default;fillColor=#647687;" parent="1" source="18622C9d9cLEmsquEzVz-16" target="18622C9d9cLEmsquEzVz-1" edge="1">
          <mxGeometry width="50" height="50" relative="1" as="geometry">
            <mxPoint x="-288" y="369" as="sourcePoint" />
            <mxPoint x="-238" y="319" as="targetPoint" />
          </mxGeometry>
        </mxCell>
        <mxCell id="18622C9d9cLEmsquEzVz-30" value="" style="endArrow=none;html=1;rounded=0;strokeColor=#FFFFFF;exitX=1;exitY=0.5;exitDx=0;exitDy=0;entryX=0;entryY=0.5;entryDx=0;entryDy=0;labelBackgroundColor=none;fontColor=default;fillColor=#647687;" parent="1" source="18622C9d9cLEmsquEzVz-7" target="18622C9d9cLEmsquEzVz-1" edge="1">
          <mxGeometry width="50" height="50" relative="1" as="geometry">
            <mxPoint x="-288" y="369" as="sourcePoint" />
            <mxPoint x="-238" y="319" as="targetPoint" />
          </mxGeometry>
        </mxCell>
        <mxCell id="18622C9d9cLEmsquEzVz-46" value="&lt;font style=&quot;font-size: 16px;&quot;&gt;Assignee&lt;/font&gt;" style="rounded=0;whiteSpace=wrap;html=1;strokeColor=#314354;fillColor=#647687;fontColor=#ffffff;" parent="1" vertex="1">
          <mxGeometry x="445" y="172" width="120" height="57" as="geometry" />
        </mxCell>
        <mxCell id="18622C9d9cLEmsquEzVz-47" value="&lt;font style=&quot;font-size: 16px;&quot;&gt;message&lt;/font&gt;" style="ellipse;whiteSpace=wrap;html=1;strokeColor=#314354;fillColor=#647687;fontColor=#ffffff;" parent="1" vertex="1">
          <mxGeometry x="445" y="332" width="120" height="77" as="geometry" />
        </mxCell>
        <mxCell id="18622C9d9cLEmsquEzVz-48" value="&lt;font style=&quot;font-size: 16px;&quot;&gt;id&lt;/font&gt;" style="ellipse;whiteSpace=wrap;html=1;strokeColor=#314354;fillColor=#647687;fontColor=#ffffff;" parent="1" vertex="1">
          <mxGeometry x="601" y="332" width="120" height="77" as="geometry" />
        </mxCell>
        <mxCell id="18622C9d9cLEmsquEzVz-49" value="&lt;u&gt;&lt;font style=&quot;font-size: 16px;&quot;&gt;assignee_id&lt;/font&gt;&lt;/u&gt;" style="ellipse;whiteSpace=wrap;html=1;strokeColor=#314354;fillColor=#647687;fontColor=#ffffff;" parent="1" vertex="1">
          <mxGeometry x="608" y="49" width="120" height="67" as="geometry" />
        </mxCell>
        <mxCell id="18622C9d9cLEmsquEzVz-50" value="&lt;font style=&quot;font-size: 16px;&quot;&gt;resource_id&lt;/font&gt;" style="ellipse;whiteSpace=wrap;html=1;strokeColor=#314354;fillColor=#647687;fontColor=#ffffff;" parent="1" vertex="1">
          <mxGeometry x="661" y="242" width="120" height="67" as="geometry" />
        </mxCell>
        <mxCell id="18622C9d9cLEmsquEzVz-51" value="&lt;font style=&quot;font-size: 16px;&quot;&gt;task_id&lt;/font&gt;" style="ellipse;whiteSpace=wrap;html=1;strokeColor=#314354;fillColor=#647687;fontColor=#ffffff;" parent="1" vertex="1">
          <mxGeometry x="661" y="142" width="120" height="67" as="geometry" />
        </mxCell>
        <mxCell id="18622C9d9cLEmsquEzVz-52" value="" style="endArrow=none;html=1;rounded=0;strokeColor=#FFFFFF;entryX=0.5;entryY=0;entryDx=0;entryDy=0;exitX=0.5;exitY=1;exitDx=0;exitDy=0;fillColor=#647687;" parent="1" source="18622C9d9cLEmsquEzVz-46" target="18622C9d9cLEmsquEzVz-47" edge="1">
          <mxGeometry width="50" height="50" relative="1" as="geometry">
            <mxPoint x="-25" y="-108" as="sourcePoint" />
            <mxPoint x="25" y="-158" as="targetPoint" />
          </mxGeometry>
        </mxCell>
        <mxCell id="18622C9d9cLEmsquEzVz-53" value="" style="endArrow=none;html=1;rounded=0;strokeColor=#FFFFFF;entryX=0;entryY=0;entryDx=0;entryDy=0;exitX=0.5;exitY=1;exitDx=0;exitDy=0;fillColor=#647687;" parent="1" source="18622C9d9cLEmsquEzVz-46" target="18622C9d9cLEmsquEzVz-48" edge="1">
          <mxGeometry width="50" height="50" relative="1" as="geometry">
            <mxPoint x="-25" y="-108" as="sourcePoint" />
            <mxPoint x="25" y="-158" as="targetPoint" />
          </mxGeometry>
        </mxCell>
        <mxCell id="18622C9d9cLEmsquEzVz-54" value="" style="endArrow=none;html=1;rounded=0;strokeColor=#FFFFFF;entryX=0;entryY=0;entryDx=0;entryDy=0;exitX=1;exitY=0.5;exitDx=0;exitDy=0;fillColor=#647687;" parent="1" source="18622C9d9cLEmsquEzVz-46" target="18622C9d9cLEmsquEzVz-50" edge="1">
          <mxGeometry width="50" height="50" relative="1" as="geometry">
            <mxPoint x="-25" y="-108" as="sourcePoint" />
            <mxPoint x="25" y="-158" as="targetPoint" />
          </mxGeometry>
        </mxCell>
        <mxCell id="18622C9d9cLEmsquEzVz-55" value="" style="endArrow=none;html=1;rounded=0;strokeColor=#FFFFFF;entryX=0;entryY=0.5;entryDx=0;entryDy=0;exitX=1;exitY=0.5;exitDx=0;exitDy=0;fillColor=#647687;" parent="1" source="18622C9d9cLEmsquEzVz-46" target="18622C9d9cLEmsquEzVz-51" edge="1">
          <mxGeometry width="50" height="50" relative="1" as="geometry">
            <mxPoint x="-25" y="-108" as="sourcePoint" />
            <mxPoint x="25" y="-158" as="targetPoint" />
          </mxGeometry>
        </mxCell>
        <mxCell id="18622C9d9cLEmsquEzVz-56" value="" style="endArrow=none;html=1;rounded=0;strokeColor=#FFFFFF;entryX=0;entryY=1;entryDx=0;entryDy=0;exitX=1;exitY=0.5;exitDx=0;exitDy=0;fillColor=#647687;" parent="1" source="18622C9d9cLEmsquEzVz-46" target="18622C9d9cLEmsquEzVz-49" edge="1">
          <mxGeometry width="50" height="50" relative="1" as="geometry">
            <mxPoint x="-25" y="-108" as="sourcePoint" />
            <mxPoint x="25" y="-158" as="targetPoint" />
          </mxGeometry>
        </mxCell>
        <mxCell id="18622C9d9cLEmsquEzVz-57" value="&lt;font style=&quot;font-size: 16px;&quot;&gt;Resource&lt;/font&gt;" style="rounded=0;whiteSpace=wrap;html=1;strokeColor=#314354;fillColor=#647687;fontColor=#ffffff;" parent="1" vertex="1">
          <mxGeometry x="159" y="774" width="120" height="60" as="geometry" />
        </mxCell>
        <mxCell id="18622C9d9cLEmsquEzVz-62" value="&lt;font style=&quot;font-size: 16px;&quot;&gt;description&lt;/font&gt;" style="ellipse;whiteSpace=wrap;html=1;strokeColor=#314354;fillColor=#647687;fontColor=#ffffff;" parent="1" vertex="1">
          <mxGeometry x="389" y="880" width="120" height="70" as="geometry" />
        </mxCell>
        <mxCell id="18622C9d9cLEmsquEzVz-63" value="&lt;font style=&quot;font-size: 16px;&quot;&gt;name&lt;/font&gt;" style="ellipse;whiteSpace=wrap;html=1;strokeColor=#314354;fillColor=#647687;rotation=0;fontColor=#ffffff;" parent="1" vertex="1">
          <mxGeometry x="309" y="960" width="120" height="70" as="geometry" />
        </mxCell>
        <mxCell id="18622C9d9cLEmsquEzVz-64" value="&lt;font style=&quot;font-size: 16px;&quot;&gt;task_id&lt;/font&gt;" style="ellipse;whiteSpace=wrap;html=1;strokeColor=#314354;fillColor=#647687;fontColor=#ffffff;" parent="1" vertex="1">
          <mxGeometry x="159" y="970" width="120" height="70" as="geometry" />
        </mxCell>
        <mxCell id="18622C9d9cLEmsquEzVz-65" value="&lt;u&gt;&lt;font style=&quot;font-size: 16px;&quot;&gt;resource_id&lt;/font&gt;&lt;/u&gt;" style="ellipse;whiteSpace=wrap;html=1;strokeColor=#314354;fillColor=#647687;fontColor=#ffffff;" parent="1" vertex="1">
          <mxGeometry x="29" y="914" width="120" height="70" as="geometry" />
        </mxCell>
        <mxCell id="18622C9d9cLEmsquEzVz-66" value="" style="endArrow=none;html=1;rounded=0;strokeColor=#FFFFFF;entryX=0;entryY=0;entryDx=0;entryDy=0;exitX=0.5;exitY=1;exitDx=0;exitDy=0;fillColor=#647687;" parent="1" source="18622C9d9cLEmsquEzVz-57" target="18622C9d9cLEmsquEzVz-62" edge="1">
          <mxGeometry width="50" height="50" relative="1" as="geometry">
            <mxPoint x="-90" y="590" as="sourcePoint" />
            <mxPoint x="-40" y="540" as="targetPoint" />
          </mxGeometry>
        </mxCell>
        <mxCell id="18622C9d9cLEmsquEzVz-67" value="" style="endArrow=none;html=1;rounded=0;strokeColor=#FFFFFF;entryX=0.5;entryY=0;entryDx=0;entryDy=0;exitX=0.5;exitY=1;exitDx=0;exitDy=0;fillColor=#647687;" parent="1" source="18622C9d9cLEmsquEzVz-57" target="18622C9d9cLEmsquEzVz-63" edge="1">
          <mxGeometry width="50" height="50" relative="1" as="geometry">
            <mxPoint x="70" y="880" as="sourcePoint" />
            <mxPoint x="-40" y="540" as="targetPoint" />
          </mxGeometry>
        </mxCell>
        <mxCell id="18622C9d9cLEmsquEzVz-68" value="" style="endArrow=none;html=1;rounded=0;strokeColor=#FFFFFF;exitX=0.5;exitY=0;exitDx=0;exitDy=0;entryX=0.5;entryY=1;entryDx=0;entryDy=0;fillColor=#647687;" parent="1" source="18622C9d9cLEmsquEzVz-64" target="18622C9d9cLEmsquEzVz-57" edge="1">
          <mxGeometry width="50" height="50" relative="1" as="geometry">
            <mxPoint x="-90" y="590" as="sourcePoint" />
            <mxPoint x="-40" y="540" as="targetPoint" />
          </mxGeometry>
        </mxCell>
        <mxCell id="18622C9d9cLEmsquEzVz-69" value="" style="endArrow=none;html=1;rounded=0;strokeColor=#FFFFFF;exitX=1;exitY=0;exitDx=0;exitDy=0;entryX=0.5;entryY=1;entryDx=0;entryDy=0;fillColor=#647687;" parent="1" source="18622C9d9cLEmsquEzVz-65" target="18622C9d9cLEmsquEzVz-57" edge="1">
          <mxGeometry width="50" height="50" relative="1" as="geometry">
            <mxPoint x="-90" y="590" as="sourcePoint" />
            <mxPoint x="-40" y="540" as="targetPoint" />
          </mxGeometry>
        </mxCell>
        <mxCell id="18622C9d9cLEmsquEzVz-70" value="&lt;font style=&quot;font-size: 16px;&quot;&gt;Task_event&lt;/font&gt;" style="rounded=0;whiteSpace=wrap;html=1;strokeColor=#314354;fillColor=#647687;fontColor=#ffffff;" parent="1" vertex="1">
          <mxGeometry x="-570" y="774" width="120" height="60" as="geometry" />
        </mxCell>
        <mxCell id="18622C9d9cLEmsquEzVz-71" value="&lt;font style=&quot;font-size: 16px;&quot;&gt;name&lt;/font&gt;" style="ellipse;whiteSpace=wrap;html=1;strokeColor=#314354;fillColor=#647687;fontColor=#ffffff;" parent="1" vertex="1">
          <mxGeometry x="-530" y="914" width="120" height="66" as="geometry" />
        </mxCell>
        <mxCell id="18622C9d9cLEmsquEzVz-72" value="&lt;font style=&quot;font-size: 16px;&quot;&gt;task_description&lt;/font&gt;" style="ellipse;whiteSpace=wrap;html=1;strokeColor=#314354;fillColor=#647687;fontColor=#ffffff;" parent="1" vertex="1">
          <mxGeometry x="-660" y="904" width="130" height="76" as="geometry" />
        </mxCell>
        <mxCell id="18622C9d9cLEmsquEzVz-73" value="&lt;font style=&quot;font-size: 16px;&quot;&gt;event_id&lt;/font&gt;" style="ellipse;whiteSpace=wrap;html=1;strokeColor=#314354;fillColor=#647687;fontColor=#ffffff;" parent="1" vertex="1">
          <mxGeometry x="-780" y="838" width="120" height="76" as="geometry" />
        </mxCell>
        <mxCell id="18622C9d9cLEmsquEzVz-74" value="&lt;u&gt;&lt;font style=&quot;font-size: 16px;&quot;&gt;Task_id&lt;/font&gt;&lt;/u&gt;" style="ellipse;whiteSpace=wrap;html=1;strokeColor=#314354;fillColor=#647687;fontColor=#ffffff;" parent="1" vertex="1">
          <mxGeometry x="-783" y="730" width="120" height="76" as="geometry" />
        </mxCell>
        <mxCell id="18622C9d9cLEmsquEzVz-76" value="" style="endArrow=none;html=1;rounded=0;strokeColor=#FFFFFF;exitX=0.5;exitY=0;exitDx=0;exitDy=0;entryX=0.5;entryY=1;entryDx=0;entryDy=0;fillColor=#647687;" parent="1" source="18622C9d9cLEmsquEzVz-71" target="18622C9d9cLEmsquEzVz-70" edge="1">
          <mxGeometry width="50" height="50" relative="1" as="geometry">
            <mxPoint x="-90" y="570" as="sourcePoint" />
            <mxPoint x="-40" y="520" as="targetPoint" />
          </mxGeometry>
        </mxCell>
        <mxCell id="18622C9d9cLEmsquEzVz-77" value="" style="endArrow=none;html=1;rounded=0;strokeColor=#FFFFFF;exitX=0.5;exitY=0;exitDx=0;exitDy=0;entryX=0.5;entryY=1;entryDx=0;entryDy=0;fillColor=#647687;" parent="1" source="18622C9d9cLEmsquEzVz-72" target="18622C9d9cLEmsquEzVz-70" edge="1">
          <mxGeometry width="50" height="50" relative="1" as="geometry">
            <mxPoint x="-90" y="570" as="sourcePoint" />
            <mxPoint x="-40" y="520" as="targetPoint" />
          </mxGeometry>
        </mxCell>
        <mxCell id="18622C9d9cLEmsquEzVz-78" value="" style="endArrow=none;html=1;rounded=0;strokeColor=#FFFFFF;exitX=1;exitY=0.5;exitDx=0;exitDy=0;entryX=0;entryY=0.5;entryDx=0;entryDy=0;fillColor=#647687;" parent="1" source="18622C9d9cLEmsquEzVz-73" target="18622C9d9cLEmsquEzVz-70" edge="1">
          <mxGeometry width="50" height="50" relative="1" as="geometry">
            <mxPoint x="-90" y="570" as="sourcePoint" />
            <mxPoint x="-40" y="520" as="targetPoint" />
          </mxGeometry>
        </mxCell>
        <mxCell id="18622C9d9cLEmsquEzVz-79" value="" style="endArrow=none;html=1;rounded=0;strokeColor=#FFFFFF;exitX=1;exitY=0.5;exitDx=0;exitDy=0;entryX=0;entryY=0.5;entryDx=0;entryDy=0;fillColor=#647687;" parent="1" source="18622C9d9cLEmsquEzVz-74" target="18622C9d9cLEmsquEzVz-70" edge="1">
          <mxGeometry width="50" height="50" relative="1" as="geometry">
            <mxPoint x="-90" y="570" as="sourcePoint" />
            <mxPoint x="-40" y="520" as="targetPoint" />
          </mxGeometry>
        </mxCell>
        <mxCell id="StJi2HHajhP9qrwiYGJo-1" value="&lt;font style=&quot;font-size: 16px;&quot;&gt;User&lt;/font&gt;" style="rounded=0;whiteSpace=wrap;html=1;fillColor=#647687;strokeColor=#314354;fontColor=#ffffff;" vertex="1" parent="1">
          <mxGeometry x="-60" y="473" width="120" height="60" as="geometry" />
        </mxCell>
        <mxCell id="StJi2HHajhP9qrwiYGJo-2" value="&lt;font style=&quot;font-size: 16px;&quot;&gt;password&lt;/font&gt;" style="ellipse;whiteSpace=wrap;html=1;fillColor=#647687;fontColor=#ffffff;strokeColor=#314354;" vertex="1" parent="1">
          <mxGeometry x="-202" y="375" width="120" height="73" as="geometry" />
        </mxCell>
        <mxCell id="StJi2HHajhP9qrwiYGJo-3" value="&lt;font style=&quot;font-size: 16px;&quot;&gt;username&lt;/font&gt;" style="ellipse;whiteSpace=wrap;html=1;fillColor=#647687;fontColor=#ffffff;strokeColor=#314354;" vertex="1" parent="1">
          <mxGeometry x="-260" y="463" width="120" height="73" as="geometry" />
        </mxCell>
        <mxCell id="StJi2HHajhP9qrwiYGJo-13" value="" style="edgeStyle=orthogonalEdgeStyle;rounded=0;orthogonalLoop=1;jettySize=auto;html=1;" edge="1" parent="1" source="StJi2HHajhP9qrwiYGJo-4">
          <mxGeometry relative="1" as="geometry">
            <mxPoint x="-122" y="357" as="targetPoint" />
          </mxGeometry>
        </mxCell>
        <mxCell id="StJi2HHajhP9qrwiYGJo-4" value="&lt;font style=&quot;font-size: 16px;&quot;&gt;Manages&lt;/font&gt;" style="rhombus;whiteSpace=wrap;html=1;fillColor=#647687;fontColor=#ffffff;strokeColor=#314354;" vertex="1" parent="1">
          <mxGeometry x="-174" y="175" width="104" height="102" as="geometry" />
        </mxCell>
        <mxCell id="StJi2HHajhP9qrwiYGJo-9" value="" style="endArrow=none;html=1;rounded=0;exitX=1;exitY=0.5;exitDx=0;exitDy=0;entryX=0;entryY=0.5;entryDx=0;entryDy=0;" edge="1" parent="1" source="StJi2HHajhP9qrwiYGJo-2" target="StJi2HHajhP9qrwiYGJo-1">
          <mxGeometry width="50" height="50" relative="1" as="geometry">
            <mxPoint x="-69" y="409" as="sourcePoint" />
            <mxPoint x="-19" y="359" as="targetPoint" />
          </mxGeometry>
        </mxCell>
        <mxCell id="StJi2HHajhP9qrwiYGJo-10" value="" style="endArrow=none;html=1;rounded=0;exitX=0;exitY=0.5;exitDx=0;exitDy=0;entryX=1;entryY=0.5;entryDx=0;entryDy=0;" edge="1" parent="1" source="StJi2HHajhP9qrwiYGJo-1" target="StJi2HHajhP9qrwiYGJo-2">
          <mxGeometry width="50" height="50" relative="1" as="geometry">
            <mxPoint x="-125" y="723" as="sourcePoint" />
            <mxPoint x="-38" y="633" as="targetPoint" />
          </mxGeometry>
        </mxCell>
        <mxCell id="StJi2HHajhP9qrwiYGJo-11" value="" style="endArrow=none;html=1;rounded=0;strokeColor=#FFFFFF;entryX=0;entryY=0.5;entryDx=0;entryDy=0;exitX=1;exitY=0.5;exitDx=0;exitDy=0;" edge="1" parent="1" source="StJi2HHajhP9qrwiYGJo-2" target="StJi2HHajhP9qrwiYGJo-1">
          <mxGeometry width="50" height="50" relative="1" as="geometry">
            <mxPoint x="-128" y="592" as="sourcePoint" />
            <mxPoint x="-19" y="540" as="targetPoint" />
          </mxGeometry>
        </mxCell>
        <mxCell id="StJi2HHajhP9qrwiYGJo-14" value="" style="endArrow=none;html=1;rounded=0;strokeColor=#FFFFFF;exitX=1;exitY=0;exitDx=0;exitDy=0;entryX=0;entryY=0.5;entryDx=0;entryDy=0;" edge="1" parent="1" source="StJi2HHajhP9qrwiYGJo-3" target="StJi2HHajhP9qrwiYGJo-1">
          <mxGeometry width="50" height="50" relative="1" as="geometry">
            <mxPoint x="-69" y="409" as="sourcePoint" />
            <mxPoint x="-19" y="359" as="targetPoint" />
          </mxGeometry>
        </mxCell>
        <mxCell id="StJi2HHajhP9qrwiYGJo-15" value="" style="endArrow=none;html=1;rounded=0;strokeColor=#FFFFFF;exitX=1;exitY=0.5;exitDx=0;exitDy=0;entryX=0;entryY=0.5;entryDx=0;entryDy=0;" edge="1" parent="1" source="18622C9d9cLEmsquEzVz-1" target="StJi2HHajhP9qrwiYGJo-4">
          <mxGeometry width="50" height="50" relative="1" as="geometry">
            <mxPoint x="-69" y="409" as="sourcePoint" />
            <mxPoint x="-19" y="359" as="targetPoint" />
          </mxGeometry>
        </mxCell>
        <mxCell id="StJi2HHajhP9qrwiYGJo-16" value="" style="endArrow=none;html=1;rounded=0;exitX=1;exitY=1;exitDx=0;exitDy=0;entryX=0.5;entryY=0;entryDx=0;entryDy=0;strokeColor=#FFFFFF;" edge="1" parent="1" source="StJi2HHajhP9qrwiYGJo-4" target="StJi2HHajhP9qrwiYGJo-1">
          <mxGeometry width="50" height="50" relative="1" as="geometry">
            <mxPoint x="-69" y="409" as="sourcePoint" />
            <mxPoint x="-19" y="359" as="targetPoint" />
          </mxGeometry>
        </mxCell>
        <mxCell id="StJi2HHajhP9qrwiYGJo-18" value="&lt;font style=&quot;font-size: 16px;&quot; color=&quot;#ffffff&quot;&gt;1&lt;/font&gt;" style="text;html=1;align=center;verticalAlign=middle;whiteSpace=wrap;rounded=0;" vertex="1" parent="1">
          <mxGeometry x="-70" y="315" width="60" height="30" as="geometry" />
        </mxCell>
        <mxCell id="StJi2HHajhP9qrwiYGJo-19" value="&lt;font style=&quot;font-size: 16px;&quot; color=&quot;#ffffff&quot;&gt;n&lt;/font&gt;" style="text;html=1;align=center;verticalAlign=middle;whiteSpace=wrap;rounded=0;" vertex="1" parent="1">
          <mxGeometry x="-288" y="196" width="60" height="30" as="geometry" />
        </mxCell>
        <mxCell id="StJi2HHajhP9qrwiYGJo-21" value="&lt;p style=&quot;line-height: 100%; font-size: 16px;&quot;&gt;Event&lt;/p&gt;" style="rounded=0;whiteSpace=wrap;html=1;strokeColor=#314354;fillColor=#647687;fontSize=16;fontStyle=0;labelBackgroundColor=none;fontColor=#ffffff;" vertex="1" parent="1">
          <mxGeometry x="458" y="630" width="120" height="60" as="geometry" />
        </mxCell>
        <mxCell id="StJi2HHajhP9qrwiYGJo-22" value="&lt;font style=&quot;font-size: 16px;&quot;&gt;address&lt;/font&gt;" style="ellipse;whiteSpace=wrap;html=1;strokeColor=#314354;fillColor=#647687;fontColor=#ffffff;" vertex="1" parent="1">
          <mxGeometry x="598" y="780" width="120" height="80" as="geometry" />
        </mxCell>
        <mxCell id="StJi2HHajhP9qrwiYGJo-23" value="&lt;font style=&quot;font-size: 16px;&quot;&gt;date&lt;/font&gt;" style="ellipse;whiteSpace=wrap;html=1;strokeColor=#314354;fillColor=#647687;fontColor=#ffffff;" vertex="1" parent="1">
          <mxGeometry x="708" y="700" width="120" height="80" as="geometry" />
        </mxCell>
        <mxCell id="StJi2HHajhP9qrwiYGJo-24" value="location" style="ellipse;whiteSpace=wrap;html=1;strokeColor=#314354;fillColor=#647687;fontSize=16;fontColor=#ffffff;" vertex="1" parent="1">
          <mxGeometry x="728" y="591" width="120" height="80" as="geometry" />
        </mxCell>
        <mxCell id="StJi2HHajhP9qrwiYGJo-25" value="&lt;font style=&quot;font-size: 16px;&quot;&gt;description&lt;/font&gt;" style="ellipse;whiteSpace=wrap;html=1;strokeColor=#314354;fillColor=#647687;fontColor=#ffffff;" vertex="1" parent="1">
          <mxGeometry x="658" y="480" width="120" height="80" as="geometry" />
        </mxCell>
        <mxCell id="StJi2HHajhP9qrwiYGJo-26" value="name" style="ellipse;whiteSpace=wrap;html=1;strokeColor=#314354;fillColor=#647687;fontSize=16;fontColor=#ffffff;" vertex="1" parent="1">
          <mxGeometry x="509" y="440" width="120" height="80" as="geometry" />
        </mxCell>
        <mxCell id="StJi2HHajhP9qrwiYGJo-27" value="Event_Id" style="ellipse;whiteSpace=wrap;html=1;strokeColor=#314354;fillColor=#647687;fontSize=16;fontStyle=4;fontColor=#ffffff;" vertex="1" parent="1">
          <mxGeometry x="348" y="428" width="120" height="80" as="geometry" />
        </mxCell>
        <mxCell id="StJi2HHajhP9qrwiYGJo-28" value="" style="endArrow=none;html=1;rounded=0;strokeColor=#FFFFFF;entryX=0.5;entryY=0;entryDx=0;entryDy=0;exitX=1;exitY=0.5;exitDx=0;exitDy=0;fillColor=#647687;" edge="1" parent="1" source="StJi2HHajhP9qrwiYGJo-21" target="StJi2HHajhP9qrwiYGJo-22">
          <mxGeometry width="50" height="50" relative="1" as="geometry">
            <mxPoint x="68" y="970" as="sourcePoint" />
            <mxPoint x="118" y="920" as="targetPoint" />
          </mxGeometry>
        </mxCell>
        <mxCell id="StJi2HHajhP9qrwiYGJo-29" value="" style="endArrow=none;html=1;rounded=0;strokeColor=#FFFFFF;entryX=0;entryY=0.5;entryDx=0;entryDy=0;exitX=1;exitY=0.5;exitDx=0;exitDy=0;fillColor=#647687;" edge="1" parent="1" source="StJi2HHajhP9qrwiYGJo-21" target="StJi2HHajhP9qrwiYGJo-23">
          <mxGeometry width="50" height="50" relative="1" as="geometry">
            <mxPoint x="68" y="970" as="sourcePoint" />
            <mxPoint x="118" y="920" as="targetPoint" />
          </mxGeometry>
        </mxCell>
        <mxCell id="StJi2HHajhP9qrwiYGJo-30" value="" style="endArrow=none;html=1;rounded=0;strokeColor=#FFFFFF;entryX=0;entryY=0.5;entryDx=0;entryDy=0;exitX=1;exitY=0.5;exitDx=0;exitDy=0;fillColor=#647687;" edge="1" parent="1" source="StJi2HHajhP9qrwiYGJo-21">
          <mxGeometry width="50" height="50" relative="1" as="geometry">
            <mxPoint x="68" y="970" as="sourcePoint" />
            <mxPoint x="728" y="630" as="targetPoint" />
          </mxGeometry>
        </mxCell>
        <mxCell id="StJi2HHajhP9qrwiYGJo-31" value="" style="endArrow=none;html=1;rounded=0;strokeColor=#FFFFFF;entryX=0.5;entryY=1;entryDx=0;entryDy=0;exitX=0.5;exitY=0;exitDx=0;exitDy=0;fillColor=#647687;" edge="1" parent="1" source="StJi2HHajhP9qrwiYGJo-21" target="StJi2HHajhP9qrwiYGJo-25">
          <mxGeometry width="50" height="50" relative="1" as="geometry">
            <mxPoint x="68" y="970" as="sourcePoint" />
            <mxPoint x="118" y="920" as="targetPoint" />
          </mxGeometry>
        </mxCell>
        <mxCell id="StJi2HHajhP9qrwiYGJo-32" value="" style="endArrow=none;html=1;rounded=0;strokeColor=#FFFFFF;entryX=0.5;entryY=1;entryDx=0;entryDy=0;exitX=0.5;exitY=0;exitDx=0;exitDy=0;fillColor=#647687;" edge="1" parent="1" source="StJi2HHajhP9qrwiYGJo-21" target="StJi2HHajhP9qrwiYGJo-26">
          <mxGeometry width="50" height="50" relative="1" as="geometry">
            <mxPoint x="68" y="970" as="sourcePoint" />
            <mxPoint x="118" y="920" as="targetPoint" />
          </mxGeometry>
        </mxCell>
        <mxCell id="StJi2HHajhP9qrwiYGJo-33" value="" style="endArrow=none;html=1;rounded=0;strokeColor=#FFFFFF;entryX=0.5;entryY=1;entryDx=0;entryDy=0;exitX=0.5;exitY=0;exitDx=0;exitDy=0;fillColor=#647687;" edge="1" parent="1" source="StJi2HHajhP9qrwiYGJo-21" target="StJi2HHajhP9qrwiYGJo-27">
          <mxGeometry width="50" height="50" relative="1" as="geometry">
            <mxPoint x="68" y="970" as="sourcePoint" />
            <mxPoint x="118" y="920" as="targetPoint" />
          </mxGeometry>
        </mxCell>
        <mxCell id="StJi2HHajhP9qrwiYGJo-34" value="&lt;font style=&quot;font-size: 16px;&quot;&gt;Assigned&lt;/font&gt;" style="rhombus;whiteSpace=wrap;html=1;fillColor=#647687;fontColor=#ffffff;strokeColor=#314354;" vertex="1" parent="1">
          <mxGeometry x="-40" y="39" width="80" height="80" as="geometry" />
        </mxCell>
        <mxCell id="StJi2HHajhP9qrwiYGJo-35" value="" style="endArrow=none;html=1;rounded=0;strokeColor=#FFFFFF;exitX=1;exitY=0.5;exitDx=0;exitDy=0;entryX=0;entryY=0.5;entryDx=0;entryDy=0;" edge="1" parent="1" source="18622C9d9cLEmsquEzVz-1" target="StJi2HHajhP9qrwiYGJo-34">
          <mxGeometry width="50" height="50" relative="1" as="geometry">
            <mxPoint x="-69" y="464" as="sourcePoint" />
            <mxPoint x="-19" y="414" as="targetPoint" />
          </mxGeometry>
        </mxCell>
        <mxCell id="StJi2HHajhP9qrwiYGJo-36" value="" style="endArrow=none;html=1;rounded=0;strokeColor=#FFFFFF;exitX=1;exitY=0.5;exitDx=0;exitDy=0;entryX=0;entryY=0.5;entryDx=0;entryDy=0;" edge="1" parent="1" source="StJi2HHajhP9qrwiYGJo-34" target="18622C9d9cLEmsquEzVz-46">
          <mxGeometry width="50" height="50" relative="1" as="geometry">
            <mxPoint x="36" y="223" as="sourcePoint" />
            <mxPoint x="417" y="73" as="targetPoint" />
          </mxGeometry>
        </mxCell>
        <mxCell id="StJi2HHajhP9qrwiYGJo-37" value="&lt;font style=&quot;font-size: 16px;&quot; color=&quot;#ffffff&quot;&gt;1&lt;/font&gt;" style="text;html=1;align=center;verticalAlign=middle;whiteSpace=wrap;rounded=0;" vertex="1" parent="1">
          <mxGeometry x="-224" y="112" width="60" height="30" as="geometry" />
        </mxCell>
        <mxCell id="StJi2HHajhP9qrwiYGJo-38" value="&lt;font style=&quot;font-size: 16px;&quot; color=&quot;#ffffff&quot;&gt;n&lt;/font&gt;" style="text;html=1;align=center;verticalAlign=middle;whiteSpace=wrap;rounded=0;" vertex="1" parent="1">
          <mxGeometry x="242" y="114" width="60" height="30" as="geometry" />
        </mxCell>
        <mxCell id="StJi2HHajhP9qrwiYGJo-39" value="&lt;font style=&quot;font-size: 16px;&quot;&gt;requires&lt;/font&gt;" style="rhombus;whiteSpace=wrap;html=1;fillColor=#647687;fontColor=#ffffff;strokeColor=#314354;" vertex="1" parent="1">
          <mxGeometry x="-248" y="764" width="113" height="80" as="geometry" />
        </mxCell>
        <mxCell id="StJi2HHajhP9qrwiYGJo-40" value="" style="endArrow=none;html=1;rounded=0;strokeColor=#FFFFFF;exitX=1;exitY=0.5;exitDx=0;exitDy=0;entryX=0;entryY=0.5;entryDx=0;entryDy=0;" edge="1" parent="1" source="18622C9d9cLEmsquEzVz-70" target="StJi2HHajhP9qrwiYGJo-39">
          <mxGeometry width="50" height="50" relative="1" as="geometry">
            <mxPoint x="-69" y="635" as="sourcePoint" />
            <mxPoint x="-19" y="585" as="targetPoint" />
          </mxGeometry>
        </mxCell>
        <mxCell id="StJi2HHajhP9qrwiYGJo-41" value="" style="endArrow=none;html=1;rounded=0;exitX=1;exitY=0.5;exitDx=0;exitDy=0;entryX=0;entryY=0.5;entryDx=0;entryDy=0;strokeColor=#FFFFFF;" edge="1" parent="1" source="StJi2HHajhP9qrwiYGJo-39" target="18622C9d9cLEmsquEzVz-57">
          <mxGeometry width="50" height="50" relative="1" as="geometry">
            <mxPoint x="-69" y="635" as="sourcePoint" />
            <mxPoint x="-19" y="585" as="targetPoint" />
          </mxGeometry>
        </mxCell>
        <mxCell id="StJi2HHajhP9qrwiYGJo-42" value="&lt;font style=&quot;font-size: 16px;&quot; color=&quot;#ffffff&quot;&gt;1&lt;/font&gt;" style="text;html=1;align=center;verticalAlign=middle;whiteSpace=wrap;rounded=0;" vertex="1" parent="1">
          <mxGeometry x="-408" y="804" width="60" height="30" as="geometry" />
        </mxCell>
        <mxCell id="StJi2HHajhP9qrwiYGJo-43" value="&lt;font style=&quot;font-size: 16px;&quot; color=&quot;#ffffff&quot;&gt;n&lt;/font&gt;" style="text;html=1;align=center;verticalAlign=middle;whiteSpace=wrap;rounded=0;" vertex="1" parent="1">
          <mxGeometry x="-92" y="800" width="60" height="30" as="geometry" />
        </mxCell>
        <mxCell id="StJi2HHajhP9qrwiYGJo-44" value="&lt;font style=&quot;font-size: 16px;&quot;&gt;Has&lt;/font&gt;" style="rhombus;whiteSpace=wrap;html=1;fillColor=#647687;fontColor=#ffffff;strokeColor=#314354;" vertex="1" parent="1">
          <mxGeometry x="-60" y="619" width="111" height="80" as="geometry" />
        </mxCell>
        <mxCell id="StJi2HHajhP9qrwiYGJo-45" value="" style="endArrow=none;html=1;rounded=0;" edge="1" parent="1">
          <mxGeometry width="50" height="50" relative="1" as="geometry">
            <mxPoint x="-69" y="634" as="sourcePoint" />
            <mxPoint x="-19" y="584" as="targetPoint" />
          </mxGeometry>
        </mxCell>
        <mxCell id="StJi2HHajhP9qrwiYGJo-46" value="" style="endArrow=none;html=1;rounded=0;strokeColor=#FFFFFF;entryX=1;entryY=0.5;entryDx=0;entryDy=0;exitX=0;exitY=0.5;exitDx=0;exitDy=0;" edge="1" parent="1" source="StJi2HHajhP9qrwiYGJo-44" target="18622C9d9cLEmsquEzVz-70">
          <mxGeometry width="50" height="50" relative="1" as="geometry">
            <mxPoint x="-69" y="634" as="sourcePoint" />
            <mxPoint x="-19" y="584" as="targetPoint" />
          </mxGeometry>
        </mxCell>
        <mxCell id="StJi2HHajhP9qrwiYGJo-47" value="" style="endArrow=none;html=1;rounded=0;strokeColor=#FFFFFF;exitX=0;exitY=0.5;exitDx=0;exitDy=0;entryX=1;entryY=0.5;entryDx=0;entryDy=0;" edge="1" parent="1" source="StJi2HHajhP9qrwiYGJo-21" target="StJi2HHajhP9qrwiYGJo-44">
          <mxGeometry width="50" height="50" relative="1" as="geometry">
            <mxPoint x="-69" y="634" as="sourcePoint" />
            <mxPoint x="-19" y="584" as="targetPoint" />
          </mxGeometry>
        </mxCell>
        <mxCell id="StJi2HHajhP9qrwiYGJo-48" value="&lt;font style=&quot;font-size: 16px;&quot; color=&quot;#ffffff&quot;&gt;1&lt;/font&gt;" style="text;html=1;align=center;verticalAlign=middle;whiteSpace=wrap;rounded=0;" vertex="1" parent="1">
          <mxGeometry x="95" y="655" width="60" height="30" as="geometry" />
        </mxCell>
        <mxCell id="StJi2HHajhP9qrwiYGJo-50" value="&lt;font style=&quot;font-size: 16px;&quot; color=&quot;#ffffff&quot;&gt;n&lt;/font&gt;" style="text;html=1;align=center;verticalAlign=middle;whiteSpace=wrap;rounded=0;" vertex="1" parent="1">
          <mxGeometry x="-265" y="690" width="60" height="30" as="geometry" />
        </mxCell>
        <mxCell id="StJi2HHajhP9qrwiYGJo-52" value="" style="endArrow=none;html=1;rounded=0;strokeColor=#FFFFFF;entryX=0;entryY=0.5;entryDx=0;entryDy=0;exitX=1;exitY=0.5;exitDx=0;exitDy=0;" edge="1" parent="1" source="StJi2HHajhP9qrwiYGJo-1" target="StJi2HHajhP9qrwiYGJo-53">
          <mxGeometry width="50" height="50" relative="1" as="geometry">
            <mxPoint x="-24" y="608" as="sourcePoint" />
            <mxPoint x="156" y="515" as="targetPoint" />
          </mxGeometry>
        </mxCell>
        <mxCell id="StJi2HHajhP9qrwiYGJo-53" value="&lt;font style=&quot;font-size: 16px;&quot;&gt;Adds&lt;/font&gt;" style="rhombus;whiteSpace=wrap;html=1;fillColor=#647687;fontColor=#ffffff;strokeColor=#314354;" vertex="1" parent="1">
          <mxGeometry x="175" y="463" width="80" height="80" as="geometry" />
        </mxCell>
        <mxCell id="StJi2HHajhP9qrwiYGJo-54" value="" style="endArrow=none;html=1;rounded=0;strokeColor=#FFFFFF;entryX=1;entryY=0.5;entryDx=0;entryDy=0;exitX=0;exitY=0.5;exitDx=0;exitDy=0;" edge="1" parent="1" source="StJi2HHajhP9qrwiYGJo-21" target="StJi2HHajhP9qrwiYGJo-53">
          <mxGeometry width="50" height="50" relative="1" as="geometry">
            <mxPoint x="-69" y="633" as="sourcePoint" />
            <mxPoint x="-19" y="583" as="targetPoint" />
          </mxGeometry>
        </mxCell>
        <mxCell id="StJi2HHajhP9qrwiYGJo-55" value="" style="endArrow=none;html=1;rounded=0;strokeColor=#FFFFFF;entryX=0.5;entryY=1;entryDx=0;entryDy=0;exitX=0.5;exitY=0;exitDx=0;exitDy=0;" edge="1" parent="1" source="18622C9d9cLEmsquEzVz-57" target="StJi2HHajhP9qrwiYGJo-53">
          <mxGeometry width="50" height="50" relative="1" as="geometry">
            <mxPoint x="317" y="727" as="sourcePoint" />
            <mxPoint x="114" y="570" as="targetPoint" />
          </mxGeometry>
        </mxCell>
        <mxCell id="StJi2HHajhP9qrwiYGJo-56" value="&lt;font style=&quot;font-size: 16px;&quot; color=&quot;#ffffff&quot;&gt;1&lt;/font&gt;" style="text;html=1;align=center;verticalAlign=middle;whiteSpace=wrap;rounded=0;" vertex="1" parent="1">
          <mxGeometry x="89" y="473" width="60" height="30" as="geometry" />
        </mxCell>
        <mxCell id="StJi2HHajhP9qrwiYGJo-57" value="&lt;font style=&quot;font-size: 16px;&quot; color=&quot;#ffffff&quot;&gt;n&lt;/font&gt;" style="text;html=1;align=center;verticalAlign=middle;whiteSpace=wrap;rounded=0;" vertex="1" parent="1">
          <mxGeometry x="325" y="536" width="60" height="30" as="geometry" />
        </mxCell>
        <mxCell id="StJi2HHajhP9qrwiYGJo-58" value="&lt;font style=&quot;font-size: 16px;&quot; color=&quot;#ffffff&quot;&gt;n&lt;/font&gt;" style="text;html=1;align=center;verticalAlign=middle;whiteSpace=wrap;rounded=0;" vertex="1" parent="1">
          <mxGeometry x="205" y="677" width="60" height="30" as="geometry" />
        </mxCell>
        <mxCell id="StJi2HHajhP9qrwiYGJo-59" value="&lt;font style=&quot;font-size: 16px;&quot;&gt;Adds&lt;/font&gt;" style="rhombus;whiteSpace=wrap;html=1;fillColor=#647687;fontColor=#ffffff;strokeColor=#314354;" vertex="1" parent="1">
          <mxGeometry x="-311" y="587" width="80" height="80" as="geometry" />
        </mxCell>
        <mxCell id="StJi2HHajhP9qrwiYGJo-60" value="" style="endArrow=none;html=1;rounded=0;strokeColor=#FFFFFF;entryX=0;entryY=1;entryDx=0;entryDy=0;exitX=1;exitY=0.5;exitDx=0;exitDy=0;" edge="1" parent="1" source="StJi2HHajhP9qrwiYGJo-59" target="StJi2HHajhP9qrwiYGJo-1">
          <mxGeometry width="50" height="50" relative="1" as="geometry">
            <mxPoint x="-598" y="605" as="sourcePoint" />
            <mxPoint x="-483" y="605" as="targetPoint" />
          </mxGeometry>
        </mxCell>
        <mxCell id="StJi2HHajhP9qrwiYGJo-61" value="" style="endArrow=none;html=1;rounded=0;strokeColor=#FFFFFF;entryX=0;entryY=0.5;entryDx=0;entryDy=0;exitX=1;exitY=0;exitDx=0;exitDy=0;" edge="1" parent="1" source="18622C9d9cLEmsquEzVz-70" target="StJi2HHajhP9qrwiYGJo-59">
          <mxGeometry width="50" height="50" relative="1" as="geometry">
            <mxPoint x="-646" y="647" as="sourcePoint" />
            <mxPoint x="-531" y="647" as="targetPoint" />
          </mxGeometry>
        </mxCell>
        <mxCell id="StJi2HHajhP9qrwiYGJo-63" value="&lt;font style=&quot;font-size: 16px;&quot; color=&quot;#ffffff&quot;&gt;1&lt;/font&gt;" style="text;html=1;align=center;verticalAlign=middle;whiteSpace=wrap;rounded=0;" vertex="1" parent="1">
          <mxGeometry x="-150" y="575" width="60" height="30" as="geometry" />
        </mxCell>
        <mxCell id="StJi2HHajhP9qrwiYGJo-64" value="&lt;font style=&quot;font-size: 16px;&quot; color=&quot;#ffffff&quot;&gt;n&lt;/font&gt;" style="text;html=1;align=center;verticalAlign=middle;whiteSpace=wrap;rounded=0;" vertex="1" parent="1">
          <mxGeometry x="-433" y="674" width="60" height="30" as="geometry" />
        </mxCell>
      </root>
    </mxGraphModel>
  </diagram>
</mxfile>
